<svg width="228" height="147" fill="none" xmlns="http://www.w3.org/2000/svg"><rect x=".5" y=".5" width="227" height="146" rx="15.5" fill="#F4F4F4" stroke="#DFDFDF"/><path fill-rule="evenodd" clip-rule="evenodd" d="M68.642 71.517c-.381-7.246-3.8-14.05-9.397-18.709-.413-.344-.888-.67-1.055-.725-.664-.22-1.441.117-1.752.759-.39.805-.172 1.33.953 2.3 3.342 2.876 5.629 6.205 7.03 10.233.545 1.566.83 2.782 1.127 4.796.145.99.145 4.67 0 5.66-.294 1.993-.573 3.189-1.112 4.759-1.377 4.009-3.694 7.386-7.046 10.272-.599.516-.863.805-.982 1.073-.534 1.208.733 2.472 1.925 1.92.436-.202 1.99-1.549 2.985-2.586 2.915-3.04 4.944-6.483 6.224-10.557.548-1.743.98-4.108 1.066-5.824l.074-1.518c.015-.316-.002-1.15-.04-1.853zm-8.733-.075a30.02 30.02 0 01-.127-.943c-.326-2.61-1.54-5.62-3.17-7.856-.926-1.27-2.844-3.208-3.57-3.608-.322-.177-1.045-.189-1.366-.023-.538.278-.88.952-.79 1.554.067.45.28.738 1 1.347 2.215 1.88 3.907 4.6 4.63 7.451.333 1.315.44 2.192.44 3.637 0 1.446-.106 2.32-.442 3.65-.715 2.828-2.416 5.562-4.629 7.438-.718.61-.932.897-1 1.348-.09.602.253 1.275.79 1.553.322.166 1.045.154 1.366-.023.144-.079.61-.452 1.035-.83 3.009-2.666 4.975-6.25 5.678-10.348.126-.739.238-3.86.155-4.347zm-8.74.493c-.16-1.388-.873-3.176-1.705-4.272-.524-.689-1.584-1.698-1.942-1.847-.89-.372-1.898.203-2.05 1.168-.09.566.08.9.837 1.646 1.303 1.284 1.81 2.371 1.891 4.052.094 1.93-.444 3.264-1.89 4.69-.745.733-.924 1.078-.85 1.633.128.953 1.174 1.553 2.062 1.181.358-.149 1.418-1.158 1.942-1.847.87-1.146 1.539-2.86 1.708-4.38.098-.88.098-1.138-.004-2.024zm-8.488.09c-.512-1.903-2.434-3.09-4.352-2.687-1.797.377-2.992 1.84-2.992 3.663 0 3.354 4.046 5.008 6.4 2.618a3.774 3.774 0 00.944-3.594z" fill="#434854"/></svg>