<svg width="20" height="20" fill="none" xmlns="http://www.w3.org/2000/svg"><path d="M15.542 2.375l.508 3.217 2.925 1.492L17.5 10l1.483 2.917-2.95 1.492-.508 3.216-3.242-.508-2.308 2.3-2.317-2.334-3.216.534-.517-3.242-2.908-1.483L2.5 9.975 1.025 7.084 3.95 5.575l.508-3.191 3.225.533L10 .575l2.308 2.309 3.234-.509zM7.917 5.834a1.25 1.25 0 100 2.5 1.25 1.25 0 000-2.5zm4.166 5.833a1.25 1.25 0 100 2.5 1.25 1.25 0 000-2.5zm-5.075 2.5l7.159-7.158-1.175-1.175-7.159 7.158 1.175 1.175z" fill="#D90707"/></svg>