<svg width="36" height="36" fill="none" xmlns="http://www.w3.org/2000/svg"><path fill-rule="evenodd" clip-rule="evenodd" d="M17.543.103c-.277.143-.329.213-1.177 1.605-.398.653-.786 1.213-.864 1.245-.077.032-.77.207-1.538.389-1.289.304-1.415.348-1.632.565-.256.256-.354.59-.284.966.032.168.341.587 1.063 1.438l1.017 1.2-.11 1.288c-.06.709-.097 1.475-.081 1.703.026.38.052.437.319.686.455.424.667.397 2.354-.3l1.39-.574 1.39.574c1.686.696 1.9.724 2.352.301.257-.24.293-.313.32-.65.018-.21-.019-.976-.08-1.703l-.112-1.323 1.019-1.201c.721-.852 1.031-1.271 1.063-1.439.07-.377-.028-.71-.284-.966-.217-.217-.343-.26-1.632-.566-.769-.181-1.461-.356-1.538-.388-.078-.032-.467-.592-.865-1.245-.866-1.42-.835-1.377-1.142-1.564a.98.98 0 00-.948-.04zm.88 3.672c.612 1.009.653 1.04 1.723 1.28.387.087.729.182.76.212.031.029-.185.334-.482.678-.296.344-.57.705-.608.802-.044.108-.052.533-.023 1.11l.048.936-.27-.115c-.904-.384-1.325-.525-1.571-.525s-.667.141-1.571.525l-.27.115.048-.935c.03-.578.02-1.003-.023-1.111-.038-.097-.312-.458-.608-.802-.297-.344-.513-.65-.482-.678.031-.03.373-.125.76-.212 1.07-.24 1.111-.271 1.722-1.28.205-.339.396-.616.424-.616.028 0 .219.277.424.616zM5.65 4.568c-.315.095-.5.33-1.301 1.651-.4.658-.734 1.207-.745 1.221-.01.014-.678.182-1.483.374-.805.19-1.541.403-1.635.47-.449.324-.615.906-.378 1.326.07.125.55.719 1.065 1.32l.938 1.095-.121 1.464c-.067.806-.1 1.577-.075 1.714.087.46.685.882 1.133.798.123-.023.832-.294 1.576-.603l1.353-.561 1.363.563c.75.31 1.456.581 1.57.604.301.06.82-.19.997-.478.172-.282.18-.77.042-2.379-.07-.815-.074-1.116-.015-1.195.044-.058.437-.525.874-1.037.436-.513.871-1.047.967-1.188.33-.485.167-1.217-.326-1.472-.112-.058-.845-.258-1.629-.445l-1.424-.338-.54-.873c-.994-1.606-1.128-1.8-1.314-1.91-.25-.148-.631-.2-.892-.12zm24.052.005c-.325.094-.502.315-1.342 1.675l-.756 1.225-1.424.338c-.784.186-1.517.386-1.63.444-.457.237-.646.959-.37 1.41.072.117.547.7 1.056 1.299.83.973.923 1.11.892 1.301-.053.342-.188 2.204-.188 2.61 0 .44.138.735.442.952.404.288.707.232 2.255-.413l1.386-.577 1.358.564c.747.31 1.47.58 1.605.602.351.055.826-.212 1.01-.566.14-.27.14-.286.02-1.845l-.123-1.572.936-1.091c.515-.601.993-1.194 1.063-1.319.237-.42.071-1.002-.378-1.325-.094-.068-.83-.28-1.635-.471-.805-.192-1.472-.36-1.483-.374-.01-.014-.346-.563-.745-1.221-.83-1.368-.962-1.532-1.333-1.643-.304-.091-.311-.091-.616-.003zM6.397 8.276C7 9.287 7.024 9.304 8.201 9.593l.79.193-.593.695c-.4.47-.608.774-.639.938-.025.134-.018.609.016 1.056.033.447.041.813.017.813s-.383-.142-.799-.316c-.416-.175-.865-.317-1-.317-.134 0-.591.143-1.017.317-.425.174-.788.316-.806.316-.019 0-.013-.375.013-.833.026-.458.027-.94.002-1.072-.03-.16-.236-.463-.611-.9-.311-.363-.55-.674-.533-.692.018-.018.396-.122.84-.23.443-.11.89-.253.992-.32.102-.067.382-.45.622-.85.24-.402.46-.73.486-.73.027 0 .214.277.416.615zm24.108.114c.24.401.52.784.622.85.102.068.549.211.992.32.444.11.822.213.84.231.018.018-.222.33-.533.692-.375.437-.58.74-.61.9-.026.131-.025.614.001 1.072.026.458.032.833.013.833-.018 0-.381-.142-.806-.316-.426-.175-.883-.317-1.018-.317-.134 0-.583.143-1 .317a11.86 11.86 0 01-.798.316c-.024 0-.016-.366.017-.813.034-.447.04-.922.015-1.056-.03-.164-.237-.469-.638-.938l-.592-.695.79-.193c1.177-.289 1.2-.306 1.803-1.317.202-.338.389-.615.416-.615.026 0 .245.328.486.73zm-13.482 7.505c-1.985.354-3.676 1.82-4.332 3.759-.194.573-.256 1.011-.255 1.793.002 1.474.505 2.702 1.576 3.846l.408.437-.232.12c-1.555.799-3.055 2.595-3.636 4.355-.331 1.001-.393 1.529-.395 3.353-.002 1.644.006 1.746.143 1.93.08.107.233.26.34.34.192.143.247.145 7.264.163 7.832.02 7.372.046 7.713-.432.154-.215.157-.261.152-2.154-.005-1.86-.012-1.96-.19-2.626-.544-2.024-1.779-3.688-3.547-4.777l-.506-.312.388-.38c1.104-1.082 1.739-2.763 1.62-4.293a5.594 5.594 0 00-4.069-4.99c-.593-.17-1.848-.238-2.442-.132zm1.776 2.147a3.49 3.49 0 012.535 2.566c.194.789.122 1.464-.24 2.236a3.434 3.434 0 01-4.854 1.516c-1.087-.636-1.703-1.727-1.697-3.004.004-.947.341-1.738 1.024-2.406.884-.865 2.088-1.203 3.232-.908zm.934 9.213c1.341.427 2.636 1.51 3.275 2.739.506.972.63 1.49.672 2.796l.036 1.108H12.209l.045-1.038c.05-1.142.154-1.68.466-2.411 1.145-2.692 4.208-4.087 7.013-3.194z" fill="#2779F6"/></svg>