<svg width="36" height="36" fill="none" xmlns="http://www.w3.org/2000/svg"><path fill-rule="evenodd" clip-rule="evenodd" d="M16.91 2.42c-2.075.406-3.822 1.84-4.59 3.767-.315.793-.397 1.257-.397 2.25 0 1.098.108 1.613.523 2.509.348.75.62 1.148 1.187 1.734a6.419 6.419 0 002.926 1.706c.69.18 2.2.178 2.882-.002 1.092-.29 1.943-.76 2.728-1.51.647-.618 1.015-1.13 1.387-1.932.413-.892.52-1.408.52-2.505 0-1.096-.107-1.612-.52-2.504-.372-.803-.74-1.315-1.387-1.933a6.017 6.017 0 00-2.728-1.508c-.59-.154-1.92-.192-2.53-.072zm1.952 2.113c1.569.332 2.856 1.72 3.091 3.332.316 2.166-1.21 4.21-3.38 4.525-2.164.316-4.21-1.213-4.526-3.38a3.974 3.974 0 012.208-4.15c.884-.427 1.672-.525 2.607-.327zM4.887 6.889c-1.392.308-2.476 1.266-2.93 2.59-.23.667-.23 1.75 0 2.417.395 1.151 1.266 2.028 2.443 2.459.597.218 1.853.218 2.45 0 1.177-.431 2.048-1.308 2.443-2.459.23-.667.23-1.75 0-2.417A3.937 3.937 0 006.85 7.027c-.47-.164-1.515-.238-1.963-.138zm24.75 0c-1.392.308-2.476 1.266-2.93 2.59-.129.374-.162.622-.162 1.208 0 .587.033.835.161 1.209.396 1.151 1.267 2.028 2.444 2.459.597.218 1.853.218 2.45 0 1.177-.431 2.048-1.308 2.444-2.459.229-.667.229-1.75 0-2.417A3.937 3.937 0 0031.6 7.027c-.47-.164-1.515-.238-1.963-.138zM6.223 9.046c.648.221 1.16.945 1.16 1.641 0 .425-.21.917-.526 1.233a1.73 1.73 0 01-2.464 0 1.73 1.73 0 010-2.466c.49-.489 1.157-.637 1.83-.408zm24.75 0c.649.221 1.16.945 1.16 1.641 0 .927-.831 1.758-1.758 1.758-.425 0-.917-.21-1.232-.525a1.73 1.73 0 010-2.466c.49-.489 1.157-.637 1.83-.408zm-27.21 8.016c-.995.213-2.07.864-2.677 1.621-.18.224-.45.66-.6.97-.48.977-.484 1.037-.486 5.773-.001 4.755-.008 4.68.512 5.271.153.174.44.402.638.506l.36.19 3.491.02 3.49.02.084.332c.193.77.677 1.354 1.4 1.693l.395.185h15.26l.395-.185a2.486 2.486 0 001.4-1.693l.084-.331 3.455-.02c3.365-.02 3.463-.024 3.782-.172.417-.192.832-.608 1.05-1.05l.17-.346.02-4.3c.021-4.782.013-4.894-.432-5.822-.67-1.4-1.895-2.371-3.364-2.67-.748-.152-2.817-.15-3.557.002a4.75 4.75 0 00-3.16 2.271 8.88 8.88 0 01-.206.352c-.011.015-.255-.194-.54-.466-1.11-1.054-2.456-1.75-4.069-2.105-.858-.19-4.456-.19-5.315 0-1.63.358-3.053 1.109-4.186 2.207-.272.264-.43.374-.452.313-.018-.052-.19-.331-.385-.621-.639-.955-1.79-1.717-2.95-1.953-.723-.146-2.909-.142-3.606.007zm3.77 2.256a2.92 2.92 0 011.312 1.338c.163.353.186.493.188 1.14.002.605-.031.847-.184 1.337-.277.892-.34 1.641-.341 4.025v2.162H2.104l.02-4.13.02-4.132.188-.399c.34-.724 1.01-1.307 1.741-1.511.22-.062.743-.085 1.66-.074l1.337.016.463.228zm13.033-.066c1.789.483 3.32 1.729 4.12 3.353.65 1.318.651 1.329.68 5.264.023 3.167.016 3.445-.095 3.568-.117.13-.341.133-7.277.133-6.508 0-7.166-.01-7.27-.114-.103-.103-.112-.455-.09-3.568.022-3.302.03-3.48.178-4.017.48-1.746 1.701-3.279 3.239-4.065 1.287-.659 1.804-.75 4.125-.725 1.614.017 1.894.038 2.39.172zm11.787.066a2.933 2.933 0 011.314 1.338l.188.402.02 4.131.02 4.131h-6.402v-2.162c0-2.384-.064-3.133-.341-4.025-.153-.49-.186-.732-.184-1.336.002-.647.025-.788.187-1.138.335-.722 1.008-1.307 1.74-1.511.22-.062.742-.085 1.659-.074l1.337.016.463.228z" fill="#2779F6"/></svg>