<svg width="37" height="37" fill="none" xmlns="http://www.w3.org/2000/svg"><path fill-rule="evenodd" clip-rule="evenodd" d="M16.35.476c-.979.1-2.262.375-3.093.665-1.447.504-2.433 1.114-3.452 2.137C8.8 4.285 8.153 5.358 7.665 6.82c-.366 1.103-.667 2.773-.669 3.72v.327l-.325.082c-.778.195-1.648.86-2.018 1.54-.374.688-.4.941-.4 3.813 0 2.163.02 2.72.109 3.064.277 1.066 1.181 1.97 2.244 2.246.292.076.757.109 1.527.109H9.24l.045.263c.216 1.276.825 2.726 1.52 3.617l.2.257v2.249l-.334.143-4.59 1.953c-2.34.995-4.426 1.923-4.634 2.06a3.26 3.26 0 00-.682.662C.33 33.519.163 34.01.12 34.831c-.045.855.067 1.166.512 1.427l.292.171H18.1c17.075 0 17.178 0 17.454-.142a.971.971 0 00.427-.436c.133-.26.147-.377.116-1.002-.041-.839-.203-1.322-.642-1.919a3.378 3.378 0 00-.681-.666c-.22-.148-2.342-1.091-4.972-2.21l-4.59-1.95V25.86l.202-.257c.678-.864 1.3-2.345 1.518-3.617l.045-.263h1.108c1.241 0 1.71-.087 2.3-.425.417-.238.909-.738 1.176-1.195.374-.637.404-.92.404-3.8 0-2.871-.027-3.124-.4-3.811-.371-.681-1.24-1.346-2.018-1.541l-.325-.082v-.34c0-.498-.195-1.906-.364-2.634-.445-1.917-1.219-3.377-2.447-4.62C24.968 1.817 23.135.96 20.64.577c-.895-.138-3.357-.195-4.29-.1zm3.246 2.106c3.261.323 5.37 1.565 6.513 3.834.513 1.019.882 2.454.976 3.8.048.678.048.68-.11.657-.132-.02-.197-.14-.392-.715-.444-1.31-.966-2.235-1.626-2.881-.793-.776-1.485-1.057-2.593-1.054-.813.002-1.369.145-2.872.735-1.275.502-1.489.5-2.86-.024-1.725-.66-2.606-.835-3.482-.695-1.63.261-2.804 1.56-3.557 3.936-.187.59-.249.71-.366.71-.136 0-.14-.03-.095-.675.262-3.73 1.965-6.157 5.003-7.13 1.56-.501 3.575-.684 5.46-.498zM15.014 8.6c.368.128 1.026.36 1.464.515 1.412.501 2.031.472 3.728-.174 1.652-.629 2.044-.717 2.585-.58.704.177 1.31 1.038 1.873 2.665l.232.669v8.444l-.703.476c-2.085 1.41-2.07 1.404-4.01 1.456-1.375.036-1.494.05-1.733.198-.562.35-.648 1.15-.174 1.624l.257.257h1.705l1.704-.002.694-.239c.381-.132.943-.39 1.248-.573.305-.183.555-.3.555-.258 0 .132-.493.978-.809 1.388-1.937 2.52-5.711 3.328-8.721 1.869-1.537-.745-2.72-2.045-3.25-3.57-.355-1.02-.368-1.233-.37-6.18l-.002-4.609.17-.633c.217-.815.48-1.51.744-1.972.253-.442.76-.927 1.033-.988.108-.024.23-.055.268-.068.177-.063.903.074 1.512.285zm-5.838 7.709v3.312l-1.085-.022c-1.211-.025-1.34-.07-1.598-.552-.12-.223-.13-.444-.13-2.742 0-2.788.006-2.829.485-3.149.222-.148.315-.16 1.284-.16h1.044v3.313zm20.194-3.153c.478.32.484.362.485 3.137 0 2.75-.01 2.813-.449 3.126-.2.143-.315.16-1.292.18l-1.073.022v-6.625h1.045c.969 0 1.062.012 1.284.16zM15.16 28.71c1.012.317 1.766.429 2.913.433 1.667.006 3.03-.311 4.389-1.023l.66-.345-.04 1.108c-.05 1.337-.201 2.027-.652 2.956-.586 1.21-1.514 1.966-2.844 2.32-.638.17-2.316.17-2.954 0-.839-.224-1.547-.627-2.065-1.177-.934-.99-1.372-2.24-1.434-4.093l-.036-1.102.735.368a10.99 10.99 0 001.327.555zm-3.885 2.354c.259 1.089.76 2.18 1.323 2.88.13.161.236.312.236.334 0 .023-2.366.04-5.258.038l-5.258-.004.247-.212c.155-.133 1.159-.599 2.708-1.256a1867.58 1867.58 0 004.114-1.753c.91-.389 1.67-.708 1.69-.71.02-.002.109.306.198.683zm18.087 1.103c2.69 1.144 4.127 1.79 4.29 1.932l.247.213-5.258.004c-2.891.001-5.257-.015-5.257-.038 0-.022.106-.173.236-.334.56-.697 1.065-1.801 1.328-2.906.122-.516.18-.651.263-.625.059.019 1.927.808 4.151 1.754z" fill="#2779F6"/></svg>