<svg width="36" height="36" fill="none" xmlns="http://www.w3.org/2000/svg"><path fill-rule="evenodd" clip-rule="evenodd" d="M17.422.119c-.098.065-.437.344-.754.62a14.055 14.055 0 01-5.74 3.038c-1.246.326-1.858.391-4.052.43-2.385.042-2.503.067-2.775.59-.148.284-.149.316-.12 7.59.024 6.261.044 7.41.143 8.044.806 5.147 3.493 8.949 8.918 12.617 1.4.947 4.348 2.77 4.652 2.878.275.097.337.097.612 0 .324-.115 3.715-2.219 4.89-3.035 3.555-2.465 5.73-4.797 7.187-7.705.563-1.123.907-2.052 1.176-3.17.449-1.868.435-1.582.462-9.595.026-7.298.025-7.343-.123-7.626-.271-.52-.39-.546-2.774-.588-2.194-.039-2.806-.104-4.053-.43A14.055 14.055 0 0119.332.739a12.88 12.88 0 00-.754-.62c-.24-.16-.916-.16-1.156 0zm1.118 2.743c1.82 1.428 3.912 2.442 6.233 3.021 1.118.279 2.027.388 3.617.435l1.498.045-.03 6.664c-.031 7.125-.02 6.906-.405 8.496-.579 2.393-1.881 4.648-3.821 6.613-1.523 1.544-3.042 2.682-6.245 4.682L18 33.682l-1.422-.89c-2.892-1.81-4.37-2.892-5.768-4.222-2.199-2.091-3.65-4.494-4.26-7.05-.391-1.643-.384-1.488-.412-8.564l-.026-6.594 1.498-.044c1.59-.047 2.499-.156 3.616-.435 2.321-.579 4.413-1.593 6.233-3.02.277-.218.52-.396.54-.396.02 0 .263.178.54.395zm-1.908 5.7c-2.066.282-3.957 1.216-5.478 2.704-3.284 3.214-3.797 8.156-1.239 11.945.632.937 1.766 2.046 2.724 2.665a9.89 9.89 0 0010.723 0c.957-.619 2.09-1.728 2.723-2.665a9.332 9.332 0 000-10.492c-.633-.938-1.767-2.047-2.721-2.662a9.887 9.887 0 00-6.732-1.495zm2.398 2.081c2.985.437 5.398 2.495 6.23 5.314 1.147 3.888-1.19 7.976-5.208 9.111-3.973 1.123-8.152-1.164-9.312-5.095-1.366-4.63 2.229-9.338 7.174-9.398.33-.004.831.027 1.116.068zm2.786 4.299c-.139.08-1.296 1.165-2.573 2.41l-2.32 2.266-1.28-1.241c-.703-.682-1.383-1.292-1.51-1.355-.486-.24-1.098-.041-1.38.45-.211.367-.195.684.054 1.06.267.403 3.356 3.396 3.66 3.546a1 1 0 00.907 0c.3-.147 5.547-5.25 5.818-5.66.25-.376.267-.692.055-1.06-.295-.514-.94-.702-1.431-.416z" fill="#2779F6"/></svg>