<svg width="32" height="32" fill="none" xmlns="http://www.w3.org/2000/svg"><path d="M12.074 6H8.19V2H6.248v4H2.363v2h3.885v4H8.19V8h3.884V6z" fill="#A4A4A4"/><path d="M29.476 16.606l-2.914-7a.993.993 0 00-.358-.441A.95.95 0 0025.67 9h-2.913V7c0-.265-.103-.52-.285-.707A.957.957 0 0021.785 6h-6.797v2h5.826v12.556a3.94 3.94 0 00-1.14 1.036c-.309.42-.535.898-.664 1.408h-6.102a3.992 3.992 0 00-1.373-2.163 3.794 3.794 0 00-2.374-.84c-.86 0-1.695.296-2.374.84A3.992 3.992 0 005.415 23h-1.11v-9H2.364v10c0 .265.103.52.285.707a.955.955 0 00.686.293h2.08c.212.858.695 1.62 1.373 2.163a3.794 3.794 0 002.374.84c.86 0 1.695-.296 2.374-.84A3.992 3.992 0 0012.908 25h6.102c.211.858.694 1.62 1.373 2.163a3.794 3.794 0 002.374.84 3.79 3.79 0 002.373-.84A3.992 3.992 0 0026.503 25h2.08a.958.958 0 00.687-.293c.182-.187.284-.442.284-.707v-7c0-.136-.026-.27-.078-.394zM9.16 26a1.9 1.9 0 01-1.079-.337 1.988 1.988 0 01-.715-.898 2.055 2.055 0 01-.11-1.155 2.02 2.02 0 01.53-1.024c.272-.28.618-.47.995-.548a1.891 1.891 0 011.122.114c.355.152.659.408.872.737a2.042 2.042 0 01-.242 2.524A1.917 1.917 0 019.16 26zm13.596-15h2.272l2.082 5h-4.354v-5zm0 15c-.385 0-.76-.117-1.08-.337a1.988 1.988 0 01-.715-.898 2.056 2.056 0 01-.11-1.155 2.02 2.02 0 01.531-1.024c.272-.28.618-.47.995-.548a1.891 1.891 0 011.122.114c.355.152.658.408.872.737a2.042 2.042 0 01-.243 2.525 1.916 1.916 0 01-1.372.586zm4.855-3h-1.109a4.006 4.006 0 00-1.376-2.159 3.808 3.808 0 00-2.37-.841v-2h4.855v5z" fill="#A4A4A4"/></svg>