<svg width="32" height="32" fill="none" xmlns="http://www.w3.org/2000/svg"><path d="M18 19a1 1 0 011-1h4a1 1 0 011 1v4a1 1 0 01-1 1h-4a1 1 0 01-1-1v-4zm2 3h2v-2h-2v2zM8.376 2.22l-5 4C3.044 6.484 3 6.94 3 7.34V11c0 1.126.372 2.164 1 3v15a1 1 0 001 1h22a1 1 0 001-1V14c.628-.836 1-1.874 1-3V7.332c0-.4-.044-.848-.376-1.112l-5-4A1 1 0 0023 2H9a1 1 0 00-.624.22zM11 8v3a3 3 0 01-6 0V8h6zm8 0v3a3 3 0 01-6 0V8h6zm8 0v3a3 3 0 01-6 0V8h6zM12.058 4l-.75 2H6.85l2.5-2h2.71-.002zm1.386 2l.75-2h3.586l.666 2h-5.002zm6.444-2h2.76l2.5 2h-4.594l-.666-2zM26 15.584V28H16v-9a1 1 0 00-1-1H9a1 1 0 00-1 1v9H6V15.584A4.992 4.992 0 0012 14a4.992 4.992 0 004 2 4.992 4.992 0 004-2 4.992 4.992 0 006 1.584zM14 28h-4v-8h4v8z" fill="#2779F6"/></svg>