<svg width="228" height="147" fill="none" xmlns="http://www.w3.org/2000/svg"><rect x=".5" y=".5" width="227" height="146" rx="15.5" fill="#F4F4F4" stroke="#DFDFDF"/><path fill-rule="evenodd" clip-rule="evenodd" d="M75 73v28.184h5.18V44.816H75V73zm7.77-7.389v20.795h3.503v-41.59H82.77v20.795zm5.18 0v20.795h2.589v-41.59h-2.59v20.795zm4.417-.005v20.8h3.505l-.038-20.757-.04-20.756-1.713-.044-1.714-.043v20.8zm6.094.005v20.795h5.18v-41.59h-5.18v20.795zm6.855 0v20.795h2.59v-41.59h-2.59v20.795zm4.418 0v20.795H114v-41.59h-4.266v20.795zm7.77 0v20.795h10.359v-41.59h-10.359v20.795zm13.863 0v20.795h7.77v-41.59h-7.77v20.795zm10.36 0v20.795h5.179v-41.59h-5.179v20.795zM148.734 73v28.184H153V44.816h-4.266V73zM86.197 92.124c-.084.025-.34.086-.568.136-.23.05-.649.296-.933.546-1.91 1.676-1.675 6.771.366 7.977.576.34 1.778.357 2.403.034 1.217-.63 1.782-2.027 1.763-4.356-.023-2.678-.775-4.015-2.421-4.302-.252-.044-.526-.06-.61-.035zm13.215.08c-1.245.245-1.788.767-1.415 1.357.121.191.229.175.743-.114.902-.507 1.903-.464 2.475.108.37.37.445.57.444 1.18-.002 1.072-.652 2.084-2.523 3.928-1.225 1.207-1.59 1.658-1.59 1.97v.405l2.781-.041 2.78-.042v-.914l-1.921-.042-1.92-.043 1.334-1.36c2.149-2.19 2.744-3.81 1.932-5.258-.531-.948-1.772-1.398-3.12-1.133zm7.123-.062a7.675 7.675 0 00-1.034.302c-.558.203-.638.285-.554.566.161.533.308.596.801.34.672-.346 1.723-.311 2.214.075.428.337.546 1.109.253 1.657-.189.354-1.226.77-1.922.77-.499 0-.536.031-.492.418.045.39.11.426.92.513 1.35.145 1.977.696 1.977 1.735 0 .605-.358 1.187-.877 1.423-.54.246-1.649.219-2.308-.056-.605-.253-.775-.178-.84.368-.035.295.066.397.567.577 1.267.454 3.124.205 3.933-.528 1.267-1.147.882-3.261-.706-3.867l-.429-.163.443-.27c1.474-.895 1.506-2.823.059-3.563-.473-.242-1.46-.388-2.005-.297zm23.175.058c-2.566.373-4.166 2.384-4.166 5.236 0 1.997 1.061 3.493 2.549 3.596 1.424.098 2.383-.361 2.984-1.43.648-1.153.421-2.85-.495-3.702-.947-.881-2.647-.86-3.551.044-.281.281-.285.276-.181-.243.258-1.29 1.522-2.37 2.978-2.542.763-.09.777-.102.777-.604 0-.282-.017-.504-.038-.493-.02.01-.406.073-.857.138zm12.05.018c-1.223.28-2.073 1.55-1.791 2.677.058.229.368.667.691.974l.585.557-.545.36c-1.229.812-1.46 2.414-.491 3.413.591.61 1.268.867 2.279.867 1.015 0 1.689-.257 2.287-.874.438-.452.52-.655.568-1.406.065-1.015-.269-1.711-1.029-2.144-.536-.305-.561-.418-.142-.642.483-.259.905-1.074.905-1.748 0-1.53-1.499-2.45-3.317-2.034zm-49.512.532c-.818.466-.943.592-.857.871.149.485.165.487.907.127.378-.184.72-.334.759-.334.04 0 .072 1.714.072 3.809v3.808h1.066v-8.836l-.495.006c-.28.003-.912.242-1.452.55zm20.937 2.196c-1.408 2.01-1.927 2.872-1.927 3.2v.448h3.961v2.436h1.066v-2.436h.61c.575 0 .609-.026.609-.457 0-.432-.034-.457-.609-.457h-.61v-5.485h-1.172l-1.928 2.751zm6.449-2.636c-.002.063-.103.8-.224 1.637-.121.838-.223 1.752-.225 2.032l-.005.509.609-.103c1.401-.237 2.782.463 2.978 1.51.13.689-.259 1.539-.874 1.913-.605.37-1.725.408-2.496.086-.471-.197-.544-.197-.605 0l-.141.452c-.107.343.903.704 1.992.712 1.707.013 2.912-.841 3.239-2.296.082-.364.126-.74.097-.835a11.445 11.445 0 01-.14-.578c-.123-.565-.789-1.315-1.391-1.567-.278-.116-.886-.258-1.353-.316-.937-.118-.911-.068-.75-1.404l.096-.8h3.309v-1.067h-2.057c-1.131 0-2.058.052-2.059.115zm13.257.415v.537h2.056c1.131 0 2.057.026 2.057.058 0 .033-.823 1.754-1.828 3.827-1.006 2.072-1.828 3.793-1.828 3.826 0 .032.26.058.579.058h.579l1.949-4.097c1.072-2.253 1.924-4.224 1.894-4.38-.05-.26-.263-.286-2.756-.324l-2.702-.042v.537zm-45.594.731c.562.51.729 1.263.72 3.233-.008 1.59-.054 1.915-.352 2.487-.677 1.301-1.882 1.309-2.61.017-.35-.62-.381-.83-.381-2.58 0-1.749.03-1.96.381-2.585.606-1.083 1.444-1.296 2.242-.572zm56.269-.054c.704.704.508 1.782-.422 2.325-.416.243-.475.24-1.087-.033-1.599-.716-1.193-2.71.557-2.73.363-.005.634.12.952.438zm-28.347 2.221v2.057h-1.371c-.754 0-1.371-.039-1.371-.086 0-.047.469-.75 1.043-1.562.575-.811 1.172-1.698 1.328-1.97.156-.273.304-.496.327-.496.024 0 .044.926.044 2.057zm14.561 1.066c.888 1.114.441 3.067-.78 3.411-1.072.301-2.066-.521-2.27-1.876-.191-1.276.642-2.133 1.962-2.02.596.052.823.153 1.088.485zm13.481.467c1.265.642 1.292 2.382.046 2.903-1.173.49-2.495-.262-2.495-1.42 0-.683.301-1.173.97-1.58.484-.295.742-.278 1.479.097z" fill="#434854"/></svg>