<svg width="228" height="147" fill="none" xmlns="http://www.w3.org/2000/svg"><rect x=".5" y=".5" width="227" height="146" rx="15.5" fill="#F4F4F4" stroke="#DFDFDF"/><path d="M148.028 37h-2.32V26.12h-2.88v-1.58c.786-.027 1.48-.153 2.08-.38.6-.24 1.073-.673 1.42-1.3h1.7V37zm14.156-7.08c0 1.08-.113 2.067-.34 2.96-.213.88-.553 1.633-1.02 2.26a4.662 4.662 0 01-1.72 1.46c-.693.347-1.513.52-2.46.52-.946 0-1.766-.167-2.46-.5a4.754 4.754 0 01-1.72-1.44c-.453-.613-.793-1.353-1.02-2.22-.226-.867-.34-1.833-.34-2.9 0-1.093.107-2.093.32-3 .214-.907.547-1.687 1-2.34a4.545 4.545 0 011.72-1.5c.707-.36 1.54-.54 2.5-.54.934 0 1.747.173 2.44.52.694.347 1.267.84 1.72 1.48.467.64.814 1.407 1.04 2.3.227.88.34 1.86.34 2.94zm-8.78 0c0 .733.054 1.413.16 2.04.107.627.287 1.173.54 1.64.254.453.587.813 1 1.08.414.253.927.38 1.54.38.6 0 1.107-.127 1.52-.38a2.994 2.994 0 001-1.08c.254-.467.434-1.013.54-1.64.107-.627.16-1.307.16-2.04 0-.72-.053-1.393-.16-2.02-.106-.64-.286-1.187-.54-1.64a2.95 2.95 0 00-1-1.1c-.413-.267-.92-.4-1.52-.4-.613 0-1.126.133-1.54.4a2.967 2.967 0 00-1 1.1c-.253.453-.433 1-.54 1.64-.106.627-.16 1.3-.16 2.02zm13.912 1.8c.32-.28.673-.587 1.06-.92.4-.333.773-.68 1.12-1.04.36-.373.653-.773.88-1.2.24-.427.36-.887.36-1.38 0-.72-.213-1.3-.64-1.74-.427-.44-1.04-.66-1.84-.66-.64 0-1.18.147-1.62.44-.44.293-.713.687-.82 1.18h-2.28c.053-.613.22-1.16.5-1.64.293-.48.66-.873 1.1-1.18.44-.307.92-.527 1.44-.66a6.873 6.873 0 011.82-.22c.64 0 1.24.087 1.8.26a4.15 4.15 0 011.46.78c.427.347.76.787 1 1.32.253.52.38 1.133.38 1.84 0 .56-.073 1.073-.22 1.54-.147.467-.347.9-.6 1.3s-.547.773-.88 1.12c-.32.347-.66.673-1.02.98-.48.413-.907.773-1.28 1.08l-.98.8c-.293.24-.56.46-.8.66-.24.187-.467.373-.68.56h6.46V37h-9.62v-1.9l3.9-3.38zm8.076-.94l.76-7.92h8.52v2.06h-6.58l-.4 3.68c.386-.253.8-.447 1.24-.58.453-.147.993-.22 1.62-.22.706 0 1.346.107 1.92.32.573.2 1.066.493 1.48.88.413.387.726.86.94 1.42.226.56.34 1.193.34 1.9 0 .76-.134 1.44-.4 2.04a4.385 4.385 0 01-1.1 1.52 5.031 5.031 0 01-1.64.96 6.296 6.296 0 01-2.04.32c-.627 0-1.22-.073-1.78-.22a4.934 4.934 0 01-1.5-.68c-.44-.307-.814-.7-1.12-1.18-.294-.493-.487-1.073-.58-1.74h2.3c.08.28.206.527.38.74.186.213.4.393.64.54.24.147.5.26.78.34.28.067.56.1.84.1.4 0 .773-.047 1.12-.14a2.55 2.55 0 00.9-.48 2.17 2.17 0 00.62-.8c.146-.333.22-.733.22-1.2 0-.853-.254-1.507-.76-1.96-.494-.453-1.147-.68-1.96-.68-.507 0-.967.087-1.38.26a3.817 3.817 0 00-1.12.72h-2.26zm12.285 0l.76-7.92h8.52v2.06h-6.58l-.4 3.68c.386-.253.8-.447 1.24-.58.453-.147.993-.22 1.62-.22.706 0 1.346.107 1.92.32.573.2 1.066.493 1.48.88.413.387.726.86.94 1.42.226.56.34 1.193.34 1.9 0 .76-.134 1.44-.4 2.04a4.385 4.385 0 01-1.1 1.52 5.031 5.031 0 01-1.64.96 6.296 6.296 0 01-2.04.32c-.627 0-1.22-.073-1.78-.22a4.934 4.934 0 01-1.5-.68c-.44-.307-.814-.7-1.12-1.18-.294-.493-.487-1.073-.58-1.74h2.3c.08.28.206.527.38.74.186.213.4.393.64.54.24.147.5.26.78.34.28.067.56.1.84.1.4 0 .773-.047 1.12-.14a2.55 2.55 0 00.9-.48 2.17 2.17 0 00.62-.8c.146-.333.22-.733.22-1.2 0-.853-.254-1.507-.76-1.96-.494-.453-1.147-.68-1.96-.68-.507 0-.967.087-1.38.26a3.817 3.817 0 00-1.12.72h-2.26zm16.705 6.36c-.653 0-1.28-.067-1.88-.2a5.665 5.665 0 01-1.62-.66 4.38 4.38 0 01-1.2-1.18c-.32-.48-.527-1.06-.62-1.74h2.34c.107.347.267.627.48.84.213.213.453.387.72.52.28.133.573.227.88.28.307.04.607.06.9.06.307 0 .627-.027.96-.08.333-.067.633-.18.9-.34.28-.16.507-.38.68-.66.187-.293.28-.673.28-1.14 0-.427-.087-.773-.26-1.04a1.643 1.643 0 00-.66-.62 2.765 2.765 0 00-.92-.3 6.444 6.444 0 00-1.02-.08h-1.4v-1.96h.82c.32 0 .653-.033 1-.1s.66-.18.94-.34c.293-.16.527-.373.7-.64.187-.267.28-.6.28-1 0-.387-.067-.707-.2-.96a1.532 1.532 0 00-.54-.62 1.937 1.937 0 00-.78-.32 3.86 3.86 0 00-.9-.1 3.25 3.25 0 00-1.54.38c-.48.24-.793.667-.94 1.28h-2.28c.08-.653.26-1.213.54-1.68.28-.48.64-.867 1.08-1.16.44-.307.933-.533 1.48-.68a6.92 6.92 0 011.76-.22c.6 0 1.173.067 1.72.2.56.133 1.053.347 1.48.64.427.293.767.68 1.02 1.16.253.467.38 1.04.38 1.72 0 .56-.14 1.113-.42 1.66-.267.547-.767 1.007-1.5 1.38.84.227 1.467.64 1.88 1.24.413.587.62 1.3.62 2.14 0 .773-.147 1.433-.44 1.98a4.04 4.04 0 01-1.12 1.34 4.43 4.43 0 01-1.62.76 7.98 7.98 0 01-1.98.24z" fill="#434854"/></svg>