<svg width="228" height="147" fill="none" xmlns="http://www.w3.org/2000/svg"><rect x=".5" y=".5" width="227" height="146" rx="15.5" fill="#F4F4F4" stroke="#DFDFDF"/><path fill-rule="evenodd" clip-rule="evenodd" d="M83 47.45v5.448h3.633v-7.265h7.265V42H83v5.45zm14.531-1.817v3.633h-7.265v3.632h11.019V42h-3.754v3.633zm7.387-1.817v1.817h5.449V42h-5.449v1.816zm9.082 0v1.817h9.082V42H114v1.816zm12.744 7.296l.031 9.113 9.113.03 9.112.032V42h-18.287l.031 9.112zm14.623-.03v5.45h-10.898v-10.9h10.898v5.45zm-36.449 3.697v5.513l1.786-.034 1.786-.033.032-3.663.032-3.664H114v-3.632h-9.082v5.513zm12.715-3.697v1.816h5.449v-3.632h-5.449v1.816zm16.469 0v1.816h3.632v-3.632h-3.632v1.816zM83 58.408v1.877h10.898v-3.754H83v1.877zm14.587-1.727c-.033.086-.045 1.736-.027 3.666l.032 3.51h3.633v-7.265l-1.79-.034c-1.372-.025-1.802.003-1.848.123zM114 58.408v1.877h5.449v14.531h3.633V56.531H114v1.877zm-31 7.326v1.817h7.266v7.265h3.632V63.918H83v1.816zm21.918 0v1.817H114v-3.633h-9.082v1.816zm21.824-.03l.033 1.786h3.633l.034-1.786.033-1.786h-3.767l.034 1.786zm7.36 3.663v5.45h3.632V67.55H145v-3.633h-10.898v5.45zm-36.57 1.817v3.632H114v-3.632h-12.715V67.55h-3.754v3.633zM83 76.633v5.449h7.266v-3.633h-3.633v-7.265H83v5.449zM126.715 73v1.816h3.754v-3.632h-3.754V73zm14.652 1.816v3.633h-3.633v3.633H145V71.184h-3.633v3.632zm-47.469 5.45v1.816h3.633v-3.633h-3.633v1.817zm7.387-.004v1.814l1.786.033 1.786.034.033 3.663.031 3.663H114v-3.754h-5.449v-7.266h-7.266v1.813zm12.715.004v1.816h9.082v-3.633H114v1.817zm12.796-1.736c-.045.044-.081.862-.081 1.816v1.736h7.387v-3.633h-3.613c-1.987 0-3.649.037-3.693.081zM83 94.857V104h18.287l-.031-9.112-.031-9.113-9.113-.03L83 85.712v9.144zm36.53-9.061c-.044.044-.081 1.706-.081 3.693v3.613H114v3.632h9.082v-11.02h-1.736c-.954 0-1.772.037-1.816.082zm7.266 0c-.045.044-.081 4.158-.081 9.142V104H145V85.715h-9.062c-4.984 0-9.098.036-9.142.08zm-29.265 9.122v5.449H86.632V89.468h10.9v5.45zm43.836 0v5.449h-10.898V89.468h10.898v5.45zm-51.101 0v1.816h3.632v-3.632h-3.632v1.816zm14.652 0v1.816h5.449v-3.632h-5.449v1.816zm29.184 0v1.816h3.632v-3.632h-3.632v1.816zm-29.184 7.266V104H114v-3.633h-9.082v1.817zm12.715 0V104h5.449v-3.633h-5.449v1.817z" fill="#434854"/></svg>