<svg width="228" height="147" fill="none" xmlns="http://www.w3.org/2000/svg"><rect x=".5" y=".5" width="227" height="146" rx="15.5" fill="#F4F4F4" stroke="#DFDFDF"/><path d="M107.688 81.26V79h-1.16c-.84 0-1.593-.127-2.26-.38a5.042 5.042 0 01-1.68-1.1 4.88 4.88 0 01-1.04-1.72c-.24-.667-.36-1.413-.36-2.24 0-.853.127-1.613.38-2.28a4.65 4.65 0 011.12-1.68 4.728 4.728 0 011.72-1.06c.667-.24 1.407-.36 2.22-.36h1.06v-2.04h2.32v2.04h1c.813 0 1.553.12 2.22.36.667.24 1.24.587 1.72 1.04a4.534 4.534 0 011.14 1.68c.267.653.407 1.4.42 2.24 0 .84-.127 1.6-.38 2.28a4.88 4.88 0 01-1.04 1.72 4.641 4.641 0 01-1.68 1.12c-.653.253-1.4.38-2.24.38h-1.16v2.26h-2.32zm-1-11.14c-1.04 0-1.833.313-2.38.94-.547.613-.82 1.413-.82 2.4 0 .52.06 1 .18 1.44.133.44.333.82.6 1.14.267.32.6.567 1 .74.4.173.873.26 1.42.26h1v-6.92h-1zm3.32 6.92h1.04c.547 0 1.02-.087 1.42-.26.4-.187.727-.433.98-.74.267-.307.46-.673.58-1.1.12-.427.18-.893.18-1.4 0-.493-.073-.947-.22-1.36a3.111 3.111 0 00-.64-1.1c-.28-.307-.62-.54-1.02-.7-.4-.173-.853-.26-1.36-.26h-.96v6.92zm8.991 3.96V66.86h2.32v10.38l7.26-10.38h2.08V81h-2.32V70.72L121.079 81h-2.08zm20.982.14c-1.107 0-2.087-.18-2.94-.54a6.16 6.16 0 01-2.12-1.52 6.633 6.633 0 01-1.32-2.28c-.294-.88-.44-1.84-.44-2.88 0-1.053.153-2.02.46-2.9.306-.893.746-1.66 1.32-2.3.586-.64 1.3-1.14 2.14-1.5.853-.36 1.826-.54 2.92-.54 1.093 0 2.06.18 2.9.54a5.72 5.72 0 012.14 1.48c.586.64 1.026 1.407 1.32 2.3.306.88.46 1.847.46 2.9 0 1.04-.154 2.007-.46 2.9a6.272 6.272 0 01-1.32 2.28 6.128 6.128 0 01-2.14 1.52c-.854.36-1.827.54-2.92.54zm.02-12.38c-.76 0-1.42.14-1.98.42a4.183 4.183 0 00-1.38 1.12 4.753 4.753 0 00-.84 1.64 7.292 7.292 0 00-.26 1.96c0 .68.086 1.333.26 1.96.186.613.46 1.16.82 1.64.373.48.84.86 1.4 1.14.56.28 1.22.42 1.98.42.746 0 1.4-.133 1.96-.4.56-.28 1.02-.653 1.38-1.12a4.553 4.553 0 00.82-1.62c.186-.627.28-1.293.28-2a6.72 6.72 0 00-.28-1.96 4.535 4.535 0 00-.82-1.64c-.36-.48-.82-.86-1.38-1.14-.547-.28-1.2-.42-1.96-.42z" fill="#434854"/><path fill="#fff" d="M19 42h63v63H19z"/><mask id="a" style="mask-type:alpha" maskUnits="userSpaceOnUse" x="30" y="53" width="42" height="42"><path d="M32.005 92.231a.78.78 0 00.79.769h36.408a.78.78 0 00.792-.769v-.918c.018-.277.055-1.657-.855-3.184-.574-.963-1.407-1.794-2.476-2.472-1.293-.82-2.938-1.413-4.928-1.77a29.248 29.248 0 01-3.002-.584c-2.632-.672-2.862-1.267-2.864-1.273a.764.764 0 00-.066-.169c-.022-.11-.075-.528.027-1.647.258-2.843 1.783-4.523 3.008-5.873.386-.425.75-.828 1.032-1.222 1.213-1.7 1.325-3.635 1.33-3.755a2.003 2.003 0 00-.087-.628c-.12-.37-.343-.6-.507-.77a2.846 2.846 0 01-.113-.12c-.012-.014-.044-.052-.015-.243.098-.615.165-1.235.203-1.857.056-1.002.099-2.5-.16-3.959a6.043 6.043 0 00-.172-.825c-.273-1.004-.711-1.862-1.32-2.57-.105-.115-2.653-2.8-10.05-3.35-1.023-.076-2.034-.035-3.03.016a4.384 4.384 0 00-.875.108c-.764.197-.968.681-1.021.952-.09.45.067.798.17 1.03.015.033.034.074 0 .182-.17.266-.441.506-.716.733-.08.067-1.934 1.667-2.036 3.756-.275 1.589-.255 4.064.07 5.775.02.095.047.235.002.33-.35.313-.746.668-.745 1.478.004.082.117 2.016 1.33 3.717.28.394.645.796 1.03 1.221l.002.001c1.225 1.35 2.75 3.03 3.008 5.872.1 1.12.048 1.537.027 1.648a.75.75 0 00-.067.169c-.001.006-.23.599-2.85 1.27-1.512.387-3 .585-3.045.59-1.934.327-3.57.906-4.86 1.721-1.065.673-1.9 1.507-2.48 2.477-.928 1.55-.903 2.962-.89 3.22v.923h0z" fill="#fff" stroke="#fff" stroke-width="4" stroke-linejoin="round"/></mask><g mask="url(#a)"><path d="M27 50h48v48H27V50z" fill="#434854"/></g></svg>