<svg width="228" height="147" fill="none" xmlns="http://www.w3.org/2000/svg"><rect x=".5" y=".5" width="227" height="146" rx="15.5" fill="#F4F4F4" stroke="#DFDFDF"/><path d="M31.104 64.008l4.152 7.44 4.128-7.44h5.28V81H40.32V70.176l-4.296 7.464H34.32l-4.368-7.464V81h-4.344V64.008h5.496zm27.306 5.448c-.08-.528-.36-.936-.84-1.224-.48-.304-1.112-.456-1.896-.456-.544 0-1.016.096-1.416.288-.4.192-.6.48-.6.864s.224.672.672.864c.448.192 1.104.4 1.968.624l1.56.384c.688.176 1.336.368 1.944.576a5.206 5.206 0 011.632.816 3.73 3.73 0 011.104 1.368c.272.544.424 1.256.456 2.136 0 1.008-.2 1.864-.6 2.568a4.843 4.843 0 01-1.536 1.68 6.925 6.925 0 01-2.184.96c-.8.192-1.616.288-2.448.288-.8 0-1.608-.088-2.424-.264a6.936 6.936 0 01-2.28-.96 6.208 6.208 0 01-1.8-1.848c-.48-.784-.776-1.736-.888-2.856h4.368c.16.688.536 1.176 1.128 1.464.608.288 1.312.432 2.112.432a6 6 0 00.744-.048c.256-.032.488-.088.696-.168.224-.096.4-.224.528-.384.144-.16.216-.376.216-.648a.858.858 0 00-.456-.792c-.288-.192-.704-.336-1.248-.432l-1.344-.288a22.16 22.16 0 01-2.568-.696c-.8-.272-1.448-.592-1.944-.96a4.256 4.256 0 01-1.248-1.512c-.304-.608-.456-1.384-.456-2.328v-.048c.064-.96.304-1.76.72-2.4a5.18 5.18 0 011.56-1.56 6.227 6.227 0 012.208-.888 13.668 13.668 0 012.472-.216c.72.016 1.416.128 2.088.336a5.965 5.965 0 011.824.84 5.07 5.07 0 011.608 1.824c.4.736.656 1.624.768 2.664h-4.2zm12.688 3c0 .544.072 1.096.216 1.656.144.544.368 1.04.672 1.488.32.432.736.792 1.248 1.08.512.272 1.136.408 1.872.408.944 0 1.704-.208 2.28-.624.576-.416.952-1.008 1.128-1.776h4.2c-.08 1.072-.344 2.016-.792 2.832a6.488 6.488 0 01-1.728 2.04 7.126 7.126 0 01-2.376 1.224c-.88.272-1.8.408-2.76.408-1.312 0-2.496-.2-3.552-.6a7.38 7.38 0 01-2.664-1.728c-.72-.752-1.272-1.664-1.656-2.736-.384-1.088-.576-2.304-.576-3.648 0-1.328.2-2.528.6-3.6.4-1.072.968-1.984 1.704-2.736a7.38 7.38 0 012.664-1.728c1.04-.416 2.192-.624 3.456-.624a9.14 9.14 0 012.76.408c.88.272 1.648.68 2.304 1.224a5.968 5.968 0 011.632 2.016c.432.816.696 1.776.792 2.88h-4.104c-.192-.768-.56-1.36-1.104-1.776-.528-.432-1.272-.648-2.232-.648-.736 0-1.36.136-1.872.408-.512.256-.928.6-1.248 1.032-.304.432-.528.92-.672 1.464a7.206 7.206 0 00-.192 1.656zM88.608 81H83.95l6.816-16.992h4.416L101.927 81h-4.68l-.84-2.4h-6.936l-.864 2.4zm6.431-6.312l-2.064-5.832-2.136 5.832h4.2zm17.238-10.68c.768 0 1.552.072 2.352.216a5.972 5.972 0 012.208.792c.656.4 1.2.968 1.632 1.704.432.736.656 1.696.672 2.88-.032 1.12-.304 2.12-.816 3-.496.88-1.336 1.544-2.52 1.992L119.741 81h-4.944l-3.264-5.736h-2.088V81h-4.344V64.008h7.176zm.024 7.44c.816 0 1.44-.152 1.872-.456.448-.304.672-.744.672-1.32 0-.352-.064-.632-.192-.84a1.277 1.277 0 00-.528-.48 2.002 2.002 0 00-.792-.24 6.153 6.153 0 00-.96-.072h-2.928v3.408h2.856zM123.821 81V64.008h6.648c1.344 0 2.552.184 3.624.552 1.088.352 2.008.88 2.76 1.584.752.704 1.328 1.584 1.728 2.64.416 1.056.624 2.28.624 3.672 0 2.848-.768 4.984-2.304 6.408-1.52 1.424-3.648 2.136-6.384 2.136h-6.696zm6.744-4.008c.8 0 1.472-.104 2.016-.312.544-.224.976-.528 1.296-.912.336-.4.576-.872.72-1.416a7.31 7.31 0 00.216-1.824c0-.64-.072-1.232-.216-1.776a3.363 3.363 0 00-.696-1.416c-.336-.4-.792-.712-1.368-.936-.56-.24-1.272-.36-2.136-.36h-2.232v8.952h2.4zm21.838-7.536c-.08-.528-.36-.936-.84-1.224-.48-.304-1.112-.456-1.896-.456-.544 0-1.016.096-1.416.288-.4.192-.6.48-.6.864s.224.672.672.864c.448.192 1.104.4 1.968.624l1.56.384c.688.176 1.336.368 1.944.576a5.206 5.206 0 011.632.816 3.73 3.73 0 011.104 1.368c.272.544.424 1.256.456 2.136 0 1.008-.2 1.864-.6 2.568a4.843 4.843 0 01-1.536 1.68 6.925 6.925 0 01-2.184.96c-.8.192-1.616.288-2.448.288-.8 0-1.608-.088-2.424-.264a6.936 6.936 0 01-2.28-.96 6.208 6.208 0 01-1.8-1.848c-.48-.784-.776-1.736-.888-2.856h4.368c.16.688.536 1.176 1.128 1.464.608.288 1.312.432 2.112.432a6 6 0 00.744-.048c.256-.032.488-.088.696-.168.224-.096.4-.224.528-.384.144-.16.216-.376.216-.648a.858.858 0 00-.456-.792c-.288-.192-.704-.336-1.248-.432l-1.344-.288a22.16 22.16 0 01-2.568-.696c-.8-.272-1.448-.592-1.944-.96a4.256 4.256 0 01-1.248-1.512c-.304-.608-.456-1.384-.456-2.328v-.048c.064-.96.304-1.76.72-2.4a5.18 5.18 0 011.56-1.56 6.227 6.227 0 012.208-.888 13.668 13.668 0 012.472-.216c.72.016 1.416.128 2.088.336a5.965 5.965 0 011.824.84 5.07 5.07 0 011.608 1.824c.4.736.656 1.624.768 2.664h-4.2zm10.225 8.856c.416 0 .76.136 1.032.408.272.272.408.616.408 1.032 0 .416-.136.76-.408 1.032-.272.272-.616.408-1.032.408-.416 0-.76-.136-1.032-.408-.272-.272-.408-.616-.408-1.032 0-.416.136-.76.408-1.032.272-.272.616-.408 1.032-.408zm8.902-3.672V81h-2.088V64.032h6.36c.928 0 1.768.096 2.52.288.752.192 1.392.496 1.92.912.528.416.928.968 1.2 1.656.288.672.432 1.488.432 2.448 0 .704-.104 1.336-.312 1.896a4.939 4.939 0 01-.84 1.44c-.336.4-.736.736-1.2 1.008a7.033 7.033 0 01-1.44.6l3.552 6.72h-2.28l-3.384-6.36h-4.44zm3.6-1.896c.624 0 1.208-.048 1.752-.144a4.081 4.081 0 001.464-.528c.416-.256.744-.6.984-1.032.256-.448.392-1.04.408-1.776 0-1.216-.36-2.072-1.08-2.568-.704-.512-1.728-.768-3.072-.768h-4.056v6.816h3.6zm18.845 8.448c-1.328 0-2.488-.216-3.48-.648a7.206 7.206 0 01-2.496-1.824c-.672-.768-1.176-1.68-1.512-2.736-.336-1.056-.504-2.208-.504-3.456 0-1.248.168-2.4.504-3.456.336-1.072.84-1.992 1.512-2.76a6.951 6.951 0 012.496-1.8c.992-.448 2.152-.672 3.48-.672 1.312 0 2.464.224 3.456.672a6.951 6.951 0 012.496 1.8c.672.768 1.176 1.688 1.512 2.76.336 1.056.504 2.208.504 3.456 0 1.248-.168 2.4-.504 3.456-.336 1.056-.84 1.968-1.512 2.736a7.206 7.206 0 01-2.496 1.824c-.992.432-2.144.648-3.456.648zm0-15.456c-1.008 0-1.88.184-2.616.552a4.966 4.966 0 00-1.824 1.464 6.492 6.492 0 00-1.08 2.184c-.24.816-.36 1.68-.36 2.592 0 .912.112 1.776.336 2.592.24.816.6 1.536 1.08 2.16a5.195 5.195 0 001.824 1.488c.752.352 1.632.528 2.64.528 1.008 0 1.88-.176 2.616-.528a5.08 5.08 0 001.8-1.464 6.187 6.187 0 001.056-2.16 9.23 9.23 0 00.36-2.616c0-.928-.12-1.8-.36-2.616-.224-.832-.576-1.552-1.056-2.16a4.966 4.966 0 00-1.824-1.464c-.736-.368-1.6-.552-2.592-.552z" fill="url(#paint0_linear_501_9394)"/><defs><linearGradient id="paint0_linear_501_9394" x1="24" y1="63" x2="204" y2="81" gradientUnits="userSpaceOnUse"><stop offset=".099" stop-color="#BAD2F5"/><stop offset=".385" stop-color="#123469"/><stop offset=".568" stop-color="#3172D6"/><stop offset="1" stop-color="#ACCDFE"/></linearGradient></defs></svg>